<svg width="192" height="192" viewBox="0 0 192 192" fill="none" xmlns="http://www.w3.org/2000/svg">
<path d="M103.712 48.9205C80.4304 50.4915 62.8899 71.1972 64.5072 95.1648C66.1244 119.132 86.2875 137.294 109.569 135.723C120.994 134.952 131.027 129.565 138.112 121.457C138.99 120.444 139.136 118.955 138.452 117.794C137.767 116.634 136.421 116.044 135.136 116.364C133.31 116.818 131.437 117.119 129.495 117.25C111.228 118.483 95.3801 104.215 94.1093 85.3819C93.2491 72.6327 99.2866 61.0726 108.94 54.5432C110.044 53.7874 110.537 52.3917 110.165 51.0932C109.793 49.7948 108.633 48.8804 107.306 48.8532C106.112 48.8365 104.92 48.8585 103.714 48.9399L103.712 48.9205Z" fill="white"/>
<path d="M111.655 57.7849C111.906 56.2622 114.095 56.2622 114.346 57.7849L115.122 62.4949L119.832 63.2707C121.354 63.5215 121.354 65.7109 119.832 65.9617L115.122 66.7375L114.346 71.4476C114.095 72.9702 111.906 72.9702 111.655 71.4476L110.879 66.7375L106.169 65.9617C104.646 65.7109 104.646 63.5215 106.169 63.2707L110.879 62.4949L111.655 57.7849Z" fill="#9755FF"/>
<path d="M120.116 71.4361C120.468 69.3044 123.533 69.3044 123.884 71.4361L124.97 78.0302L131.564 79.1163C133.696 79.4674 133.696 82.5326 131.564 82.8837L124.97 83.9698L123.884 90.5639C123.533 92.6956 120.468 92.6956 120.116 90.5639L119.03 83.9698L112.436 82.8837C110.304 82.5326 110.304 79.4674 112.436 79.1163L119.03 78.0302L120.116 71.4361Z" fill="#BE94FF"/>
<path d="M129.668 89.159C130.103 86.5197 133.898 86.5197 134.332 89.159L135.677 97.323L143.841 98.6678C146.48 99.1025 146.48 102.897 143.841 103.332L135.677 104.677L134.332 112.841C133.898 115.48 130.103 115.48 129.668 112.841L128.323 104.677L120.159 103.332C117.52 102.897 117.52 99.1025 120.159 98.6678L128.323 97.323L129.668 89.159Z" fill="#DBC3FF"/>
</svg>
